<mxfile host="app.diagrams.net" agent="Mozilla/5.0 (Macintosh; Intel Mac OS X 10_15_7) AppleWebKit/537.36 (KHTML, like Gecko) Chrome/131.0.0.0 Safari/537.36" version="25.0.1">
  <diagram name="Sayfa -1" id="CqC-Nzvn7y_lmz82JNJv">
    <mxGraphModel dx="1334" dy="1247" grid="0" gridSize="10" guides="1" tooltips="1" connect="1" arrows="1" fold="1" page="0" pageScale="1" pageWidth="827" pageHeight="1169" math="0" shadow="0">
      <root>
        <mxCell id="0" />
        <mxCell id="1" parent="0" />
        <mxCell id="7b5rg8_28mkfl1AA67ID-45" value="" style="html=1;points=[[0,0,0,0,5],[0,1,0,0,-5],[1,0,0,0,5],[1,1,0,0,-5]];perimeter=orthogonalPerimeter;outlineConnect=0;targetShapes=umlLifeline;portConstraint=eastwest;newEdgeStyle={&quot;curved&quot;:0,&quot;rounded&quot;:0};" parent="1" vertex="1">
          <mxGeometry x="357" y="-695" width="10" height="316" as="geometry" />
        </mxCell>
        <mxCell id="7b5rg8_28mkfl1AA67ID-41" value="" style="html=1;points=[[0,0,0,0,5],[0,1,0,0,-5],[1,0,0,0,5],[1,1,0,0,-5]];perimeter=orthogonalPerimeter;outlineConnect=0;targetShapes=umlLifeline;portConstraint=eastwest;newEdgeStyle={&quot;curved&quot;:0,&quot;rounded&quot;:0};" parent="1" vertex="1">
          <mxGeometry x="31" y="-559" width="10" height="191" as="geometry" />
        </mxCell>
        <mxCell id="7b5rg8_28mkfl1AA67ID-39" value="" style="html=1;points=[[0,0,0,0,5],[0,1,0,0,-5],[1,0,0,0,5],[1,1,0,0,-5]];perimeter=orthogonalPerimeter;outlineConnect=0;targetShapes=umlLifeline;portConstraint=eastwest;newEdgeStyle={&quot;curved&quot;:0,&quot;rounded&quot;:0};" parent="1" vertex="1">
          <mxGeometry x="-146" y="-623" width="10" height="254" as="geometry" />
        </mxCell>
        <mxCell id="7b5rg8_28mkfl1AA67ID-1" value=":Player" style="rounded=0;whiteSpace=wrap;html=1;" parent="1" vertex="1">
          <mxGeometry x="302" y="-781" width="120" height="60" as="geometry" />
        </mxCell>
        <mxCell id="7b5rg8_28mkfl1AA67ID-2" value=":ArcherMonster" style="rounded=0;whiteSpace=wrap;html=1;" parent="1" vertex="1">
          <mxGeometry x="-201" y="-781" width="120" height="60" as="geometry" />
        </mxCell>
        <mxCell id="7b5rg8_28mkfl1AA67ID-3" value=":GameSystem" style="rounded=0;whiteSpace=wrap;html=1;" parent="1" vertex="1">
          <mxGeometry x="-378" y="-781" width="120" height="60" as="geometry" />
        </mxCell>
        <mxCell id="7b5rg8_28mkfl1AA67ID-4" value=":FighterMonster" style="rounded=0;whiteSpace=wrap;html=1;" parent="1" vertex="1">
          <mxGeometry x="139" y="-781" width="120" height="60" as="geometry" />
        </mxCell>
        <mxCell id="7b5rg8_28mkfl1AA67ID-5" value=":WizardMonster" style="rounded=0;whiteSpace=wrap;html=1;" parent="1" vertex="1">
          <mxGeometry x="-24" y="-781" width="120" height="60" as="geometry" />
        </mxCell>
        <mxCell id="7b5rg8_28mkfl1AA67ID-6" value="" style="endArrow=none;dashed=1;html=1;rounded=0;fontSize=12;startSize=8;endSize=8;curved=1;" parent="1" source="7b5rg8_28mkfl1AA67ID-45" edge="1">
          <mxGeometry width="50" height="50" relative="1" as="geometry">
            <mxPoint x="361.29" y="-308" as="sourcePoint" />
            <mxPoint x="361.29" y="-700" as="targetPoint" />
          </mxGeometry>
        </mxCell>
        <mxCell id="7b5rg8_28mkfl1AA67ID-7" value="" style="endArrow=none;dashed=1;html=1;rounded=0;fontSize=12;startSize=8;endSize=8;curved=1;" parent="1" source="7b5rg8_28mkfl1AA67ID-39" edge="1">
          <mxGeometry width="50" height="50" relative="1" as="geometry">
            <mxPoint x="-141.70999999999998" y="-311" as="sourcePoint" />
            <mxPoint x="-141.70999999999998" y="-703" as="targetPoint" />
          </mxGeometry>
        </mxCell>
        <mxCell id="7b5rg8_28mkfl1AA67ID-8" value="" style="endArrow=none;dashed=1;html=1;rounded=0;fontSize=12;startSize=8;endSize=8;curved=1;" parent="1" source="7b5rg8_28mkfl1AA67ID-41" edge="1">
          <mxGeometry width="50" height="50" relative="1" as="geometry">
            <mxPoint x="38" y="-311" as="sourcePoint" />
            <mxPoint x="38" y="-703" as="targetPoint" />
          </mxGeometry>
        </mxCell>
        <mxCell id="7b5rg8_28mkfl1AA67ID-9" value="" style="endArrow=none;dashed=1;html=1;rounded=0;fontSize=12;startSize=8;endSize=8;curved=1;" parent="1" edge="1">
          <mxGeometry width="50" height="50" relative="1" as="geometry">
            <mxPoint x="200" y="-308" as="sourcePoint" />
            <mxPoint x="200" y="-700" as="targetPoint" />
          </mxGeometry>
        </mxCell>
        <mxCell id="7b5rg8_28mkfl1AA67ID-10" value="" style="endArrow=none;dashed=1;html=1;rounded=0;fontSize=12;startSize=8;endSize=8;curved=1;" parent="1" source="7b5rg8_28mkfl1AA67ID-37" edge="1">
          <mxGeometry width="50" height="50" relative="1" as="geometry">
            <mxPoint x="-318.71" y="-314" as="sourcePoint" />
            <mxPoint x="-318.71" y="-706" as="targetPoint" />
          </mxGeometry>
        </mxCell>
        <mxCell id="7b5rg8_28mkfl1AA67ID-11" value="" style="endArrow=classic;html=1;rounded=0;fontSize=12;startSize=8;endSize=8;curved=1;" parent="1" edge="1">
          <mxGeometry width="50" height="50" relative="1" as="geometry">
            <mxPoint x="-319" y="-662" as="sourcePoint" />
            <mxPoint x="361" y="-662" as="targetPoint" />
          </mxGeometry>
        </mxCell>
        <mxCell id="7b5rg8_28mkfl1AA67ID-12" value="spawnRandom()" style="text;html=1;align=center;verticalAlign=middle;resizable=0;points=[];autosize=1;strokeColor=none;fillColor=none;fontSize=16;" parent="1" vertex="1">
          <mxGeometry x="-68" y="-688" width="135" height="31" as="geometry" />
        </mxCell>
        <mxCell id="7b5rg8_28mkfl1AA67ID-13" value="" style="endArrow=classic;html=1;rounded=0;fontSize=12;startSize=8;endSize=8;curved=1;" parent="1" edge="1">
          <mxGeometry width="50" height="50" relative="1" as="geometry">
            <mxPoint x="-317" y="-627" as="sourcePoint" />
            <mxPoint x="-141" y="-627" as="targetPoint" />
          </mxGeometry>
        </mxCell>
        <mxCell id="7b5rg8_28mkfl1AA67ID-14" value="" style="endArrow=classic;html=1;rounded=0;fontSize=12;startSize=8;endSize=8;curved=1;" parent="1" edge="1">
          <mxGeometry width="50" height="50" relative="1" as="geometry">
            <mxPoint x="-319" y="-557" as="sourcePoint" />
            <mxPoint x="40" y="-557" as="targetPoint" />
          </mxGeometry>
        </mxCell>
        <mxCell id="7b5rg8_28mkfl1AA67ID-15" value="" style="endArrow=classic;html=1;rounded=0;fontSize=12;startSize=8;endSize=8;curved=1;" parent="1" edge="1">
          <mxGeometry width="50" height="50" relative="1" as="geometry">
            <mxPoint x="-313" y="-464" as="sourcePoint" />
            <mxPoint x="210" y="-464" as="targetPoint" />
          </mxGeometry>
        </mxCell>
        <mxCell id="7b5rg8_28mkfl1AA67ID-16" value="spawnArcher()" style="text;html=1;align=center;verticalAlign=middle;resizable=0;points=[];autosize=1;strokeColor=none;fillColor=none;fontSize=16;" parent="1" vertex="1">
          <mxGeometry x="-284" y="-654" width="122" height="31" as="geometry" />
        </mxCell>
        <mxCell id="7b5rg8_28mkfl1AA67ID-17" value="spawnWizard()" style="text;html=1;align=center;verticalAlign=middle;resizable=0;points=[];autosize=1;strokeColor=none;fillColor=none;fontSize=16;" parent="1" vertex="1">
          <mxGeometry x="-212" y="-590" width="125" height="31" as="geometry" />
        </mxCell>
        <mxCell id="7b5rg8_28mkfl1AA67ID-18" value="spawnFighter()" style="text;html=1;align=center;verticalAlign=middle;resizable=0;points=[];autosize=1;strokeColor=none;fillColor=none;fontSize=16;" parent="1" vertex="1">
          <mxGeometry x="-122" y="-488" width="125" height="31" as="geometry" />
        </mxCell>
        <mxCell id="7b5rg8_28mkfl1AA67ID-19" value="" style="endArrow=classic;html=1;rounded=0;fontSize=12;startSize=8;endSize=8;curved=1;" parent="1" edge="1">
          <mxGeometry width="50" height="50" relative="1" as="geometry">
            <mxPoint x="-137" y="-614" as="sourcePoint" />
            <mxPoint x="363" y="-614" as="targetPoint" />
          </mxGeometry>
        </mxCell>
        <mxCell id="7b5rg8_28mkfl1AA67ID-20" value="" style="endArrow=classic;html=1;rounded=0;fontSize=12;startSize=8;endSize=8;curved=1;" parent="1" edge="1">
          <mxGeometry width="50" height="50" relative="1" as="geometry">
            <mxPoint x="38" y="-546" as="sourcePoint" />
            <mxPoint x="367" y="-546" as="targetPoint" />
          </mxGeometry>
        </mxCell>
        <mxCell id="7b5rg8_28mkfl1AA67ID-21" value="" style="endArrow=classic;html=1;rounded=0;fontSize=12;startSize=8;endSize=8;curved=1;" parent="1" source="7b5rg8_28mkfl1AA67ID-43" edge="1">
          <mxGeometry width="50" height="50" relative="1" as="geometry">
            <mxPoint x="202" y="-445" as="sourcePoint" />
            <mxPoint x="362" y="-445" as="targetPoint" />
          </mxGeometry>
        </mxCell>
        <mxCell id="7b5rg8_28mkfl1AA67ID-22" value="attackDistance()" style="text;html=1;align=center;verticalAlign=middle;resizable=0;points=[];autosize=1;strokeColor=none;fillColor=none;fontSize=16;" parent="1" vertex="1">
          <mxGeometry x="-66.5" y="-639.5" width="134" height="31" as="geometry" />
        </mxCell>
        <mxCell id="7b5rg8_28mkfl1AA67ID-23" value="teleportRune()" style="text;html=1;align=center;verticalAlign=middle;resizable=0;points=[];autosize=1;strokeColor=none;fillColor=none;fontSize=16;" parent="1" vertex="1">
          <mxGeometry x="150.5" y="-570.5" width="120" height="31" as="geometry" />
        </mxCell>
        <mxCell id="7b5rg8_28mkfl1AA67ID-24" value="closeCombat()" style="text;html=1;align=center;verticalAlign=middle;resizable=0;points=[];autosize=1;strokeColor=none;fillColor=none;fontSize=16;" parent="1" vertex="1">
          <mxGeometry x="215.5" y="-469.5" width="122" height="31" as="geometry" />
        </mxCell>
        <mxCell id="7b5rg8_28mkfl1AA67ID-26" value="" style="shape=partialRectangle;whiteSpace=wrap;html=1;bottom=1;right=1;left=1;top=0;fillColor=none;routingCenterX=-0.5;rotation=-90;" parent="1" vertex="1">
          <mxGeometry x="354" y="-596" width="32" height="15" as="geometry" />
        </mxCell>
        <mxCell id="7b5rg8_28mkfl1AA67ID-28" value="useProtection()" style="text;html=1;align=center;verticalAlign=middle;resizable=0;points=[];autosize=1;strokeColor=none;fillColor=none;fontSize=16;" parent="1" vertex="1">
          <mxGeometry x="374" y="-604" width="127" height="31" as="geometry" />
        </mxCell>
        <mxCell id="7b5rg8_28mkfl1AA67ID-29" value="" style="shape=partialRectangle;whiteSpace=wrap;html=1;bottom=1;right=1;left=1;top=0;fillColor=none;routingCenterX=-0.5;rotation=-90;" parent="1" vertex="1">
          <mxGeometry x="350" y="-501" width="32" height="15" as="geometry" />
        </mxCell>
        <mxCell id="7b5rg8_28mkfl1AA67ID-30" value="useProtection()" style="text;html=1;align=center;verticalAlign=middle;resizable=0;points=[];autosize=1;strokeColor=none;fillColor=none;fontSize=16;" parent="1" vertex="1">
          <mxGeometry x="370" y="-509" width="127" height="31" as="geometry" />
        </mxCell>
        <mxCell id="7b5rg8_28mkfl1AA67ID-31" value="" style="shape=partialRectangle;whiteSpace=wrap;html=1;bottom=1;right=1;left=1;top=0;fillColor=none;routingCenterX=-0.5;rotation=-90;" parent="1" vertex="1">
          <mxGeometry x="350" y="-410" width="32" height="15" as="geometry" />
        </mxCell>
        <mxCell id="7b5rg8_28mkfl1AA67ID-32" value="reportLocation()" style="text;html=1;align=center;verticalAlign=middle;resizable=0;points=[];autosize=1;strokeColor=none;fillColor=none;fontSize=16;" parent="1" vertex="1">
          <mxGeometry x="368" y="-418" width="131" height="31" as="geometry" />
        </mxCell>
        <mxCell id="7b5rg8_28mkfl1AA67ID-33" value="" style="endArrow=classic;html=1;rounded=0;fontSize=12;startSize=8;endSize=8;curved=1;" parent="1" edge="1">
          <mxGeometry width="50" height="50" relative="1" as="geometry">
            <mxPoint x="-316" y="-688" as="sourcePoint" />
            <mxPoint x="362" y="-688" as="targetPoint" />
          </mxGeometry>
        </mxCell>
        <mxCell id="7b5rg8_28mkfl1AA67ID-34" value="move()" style="text;html=1;align=center;verticalAlign=middle;resizable=0;points=[];autosize=1;strokeColor=none;fillColor=none;fontSize=16;" parent="1" vertex="1">
          <mxGeometry x="-30.5" y="-713.5" width="68" height="31" as="geometry" />
        </mxCell>
        <mxCell id="7b5rg8_28mkfl1AA67ID-35" value="loop" style="shape=umlFrame;whiteSpace=wrap;html=1;pointerEvents=0;" parent="1" vertex="1">
          <mxGeometry x="-364" y="-712" width="784" height="35" as="geometry" />
        </mxCell>
        <mxCell id="7b5rg8_28mkfl1AA67ID-36" value="True" style="text;html=1;align=center;verticalAlign=middle;resizable=0;points=[];autosize=1;strokeColor=none;fillColor=none;fontSize=16;" parent="1" vertex="1">
          <mxGeometry x="-305.5" y="-716.5" width="50" height="31" as="geometry" />
        </mxCell>
        <mxCell id="7b5rg8_28mkfl1AA67ID-38" value="" style="endArrow=none;dashed=1;html=1;rounded=0;fontSize=12;startSize=8;endSize=8;curved=1;" parent="1" target="7b5rg8_28mkfl1AA67ID-37" edge="1">
          <mxGeometry width="50" height="50" relative="1" as="geometry">
            <mxPoint x="-318.71" y="-314" as="sourcePoint" />
            <mxPoint x="-318.71" y="-706" as="targetPoint" />
          </mxGeometry>
        </mxCell>
        <mxCell id="7b5rg8_28mkfl1AA67ID-37" value="" style="html=1;points=[[0,0,0,0,5],[0,1,0,0,-5],[1,0,0,0,5],[1,1,0,0,-5]];perimeter=orthogonalPerimeter;outlineConnect=0;targetShapes=umlLifeline;portConstraint=eastwest;newEdgeStyle={&quot;curved&quot;:0,&quot;rounded&quot;:0};" parent="1" vertex="1">
          <mxGeometry x="-323" y="-684" width="10" height="319" as="geometry" />
        </mxCell>
        <mxCell id="7b5rg8_28mkfl1AA67ID-40" value="" style="endArrow=none;dashed=1;html=1;rounded=0;fontSize=12;startSize=8;endSize=8;curved=1;" parent="1" target="7b5rg8_28mkfl1AA67ID-39" edge="1">
          <mxGeometry width="50" height="50" relative="1" as="geometry">
            <mxPoint x="-141.70999999999998" y="-311" as="sourcePoint" />
            <mxPoint x="-141.70999999999998" y="-703" as="targetPoint" />
          </mxGeometry>
        </mxCell>
        <mxCell id="7b5rg8_28mkfl1AA67ID-42" value="" style="endArrow=none;dashed=1;html=1;rounded=0;fontSize=12;startSize=8;endSize=8;curved=1;" parent="1" target="7b5rg8_28mkfl1AA67ID-41" edge="1">
          <mxGeometry width="50" height="50" relative="1" as="geometry">
            <mxPoint x="38" y="-311" as="sourcePoint" />
            <mxPoint x="38" y="-703" as="targetPoint" />
          </mxGeometry>
        </mxCell>
        <mxCell id="7b5rg8_28mkfl1AA67ID-44" value="" style="endArrow=classic;html=1;rounded=0;fontSize=12;startSize=8;endSize=8;curved=1;" parent="1" target="7b5rg8_28mkfl1AA67ID-43" edge="1">
          <mxGeometry width="50" height="50" relative="1" as="geometry">
            <mxPoint x="202" y="-445" as="sourcePoint" />
            <mxPoint x="362" y="-445" as="targetPoint" />
          </mxGeometry>
        </mxCell>
        <mxCell id="7b5rg8_28mkfl1AA67ID-43" value="" style="html=1;points=[[0,0,0,0,5],[0,1,0,0,-5],[1,0,0,0,5],[1,1,0,0,-5]];perimeter=orthogonalPerimeter;outlineConnect=0;targetShapes=umlLifeline;portConstraint=eastwest;newEdgeStyle={&quot;curved&quot;:0,&quot;rounded&quot;:0};" parent="1" vertex="1">
          <mxGeometry x="200" y="-465" width="10" height="99" as="geometry" />
        </mxCell>
        <mxCell id="7b5rg8_28mkfl1AA67ID-46" value="" style="endArrow=none;dashed=1;html=1;rounded=0;fontSize=12;startSize=8;endSize=8;curved=1;" parent="1" target="7b5rg8_28mkfl1AA67ID-45" edge="1">
          <mxGeometry width="50" height="50" relative="1" as="geometry">
            <mxPoint x="361.29" y="-308" as="sourcePoint" />
            <mxPoint x="361.29" y="-700" as="targetPoint" />
          </mxGeometry>
        </mxCell>
      </root>
    </mxGraphModel>
  </diagram>
</mxfile>
